<mxfile host="app.diagrams.net" modified="2023-10-30T10:49:29.313Z" agent="Mozilla/5.0 (Macintosh; Intel Mac OS X 10_15_7) AppleWebKit/537.36 (KHTML, like Gecko) Chrome/118.0.0.0 Safari/537.36" etag="zqEJf_w-cBj_0PQq1jm2" version="22.0.8" type="device">
  <diagram name="Page-1" id="58cdce13-f638-feb5-8d6f-7d28b1aa9fa0">
    <mxGraphModel dx="1893" dy="677" grid="1" gridSize="10" guides="1" tooltips="1" connect="1" arrows="1" fold="1" page="1" pageScale="1" pageWidth="1100" pageHeight="850" background="none" math="0" shadow="0">
      <root>
        <mxCell id="0" />
        <mxCell id="1" parent="0" />
        <mxCell id="382b91b5511bd0f7-1" value="" style="ellipse;html=1;shape=startState;fillColor=#000000;strokeColor=#ff0000;rounded=1;shadow=0;comic=0;labelBackgroundColor=none;fontFamily=Verdana;fontSize=12;fontColor=#000000;align=center;direction=south;" parent="1" vertex="1">
          <mxGeometry x="170" y="135" width="30" height="30" as="geometry" />
        </mxCell>
        <mxCell id="YlIedj13TrwdOLS3Xuvx-8" style="edgeStyle=orthogonalEdgeStyle;rounded=1;orthogonalLoop=1;jettySize=auto;html=1;exitX=0.25;exitY=1;exitDx=0;exitDy=0;entryX=0.75;entryY=1;entryDx=0;entryDy=0;strokeColor=#FF0000;" edge="1" parent="1" source="382b91b5511bd0f7-5" target="YlIedj13TrwdOLS3Xuvx-3">
          <mxGeometry relative="1" as="geometry" />
        </mxCell>
        <mxCell id="YlIedj13TrwdOLS3Xuvx-10" style="edgeStyle=orthogonalEdgeStyle;rounded=1;orthogonalLoop=1;jettySize=auto;html=1;exitX=1;exitY=0.5;exitDx=0;exitDy=0;entryX=0;entryY=0.5;entryDx=0;entryDy=0;strokeColor=#FF0000;" edge="1" parent="1" source="382b91b5511bd0f7-5" target="YlIedj13TrwdOLS3Xuvx-9">
          <mxGeometry relative="1" as="geometry" />
        </mxCell>
        <mxCell id="YlIedj13TrwdOLS3Xuvx-23" value="sync takes&lt;br&gt;too long" style="edgeLabel;html=1;align=center;verticalAlign=middle;resizable=0;points=[];" vertex="1" connectable="0" parent="YlIedj13TrwdOLS3Xuvx-10">
          <mxGeometry x="-0.082" y="2" relative="1" as="geometry">
            <mxPoint x="1" y="-13" as="offset" />
          </mxGeometry>
        </mxCell>
        <mxCell id="382b91b5511bd0f7-5" value="&lt;div style=&quot;font-family: Menlo, Monaco, &amp;quot;Courier New&amp;quot;, monospace; font-size: 10.5px; line-height: 16px;&quot;&gt;&lt;font color=&quot;#1f1f1f&quot;&gt;StateUpdating&lt;/font&gt;&lt;/div&gt;" style="rounded=1;whiteSpace=wrap;html=1;arcSize=24;fillColor=#ffffc0;strokeColor=#ff0000;shadow=0;comic=0;labelBackgroundColor=none;fontFamily=Verdana;fontSize=12;fontColor=#000000;align=center;" parent="1" vertex="1">
          <mxGeometry x="596.03" y="332" width="120" height="60" as="geometry" />
        </mxCell>
        <mxCell id="382b91b5511bd0f7-6" value="&lt;div style=&quot;font-family: Menlo, Monaco, &amp;quot;Courier New&amp;quot;, monospace; font-size: 10.5px; line-height: 16px;&quot;&gt;&lt;font color=&quot;#1f1f1f&quot;&gt;Initializing&lt;/font&gt;&lt;/div&gt;" style="rounded=1;whiteSpace=wrap;html=1;arcSize=24;fillColor=#ffffc0;strokeColor=#ff0000;shadow=0;comic=0;labelBackgroundColor=none;fontFamily=Verdana;fontSize=12;fontColor=#000000;align=center;" parent="1" vertex="1">
          <mxGeometry x="240" y="120" width="120" height="60" as="geometry" />
        </mxCell>
        <mxCell id="3cde6dad864a17aa-3" style="edgeStyle=orthogonalEdgeStyle;html=1;exitX=1;exitY=0.25;entryX=0.5;entryY=0;labelBackgroundColor=none;endArrow=open;endSize=8;strokeColor=#ff0000;fontFamily=Verdana;fontSize=12;align=left;entryDx=0;entryDy=0;jumpSize=6;startSize=6;strokeWidth=1;" parent="1" source="382b91b5511bd0f7-7" target="382b91b5511bd0f7-9" edge="1">
          <mxGeometry relative="1" as="geometry" />
        </mxCell>
        <mxCell id="YlIedj13TrwdOLS3Xuvx-19" value="switching a privacy pool" style="edgeLabel;html=1;align=center;verticalAlign=middle;resizable=0;points=[];" vertex="1" connectable="0" parent="3cde6dad864a17aa-3">
          <mxGeometry x="-0.2969" y="-1" relative="1" as="geometry">
            <mxPoint x="8" y="-9" as="offset" />
          </mxGeometry>
        </mxCell>
        <mxCell id="YlIedj13TrwdOLS3Xuvx-4" style="edgeStyle=orthogonalEdgeStyle;rounded=1;orthogonalLoop=1;jettySize=auto;html=1;exitX=0.25;exitY=1;exitDx=0;exitDy=0;entryX=0.5;entryY=0;entryDx=0;entryDy=0;strokeColor=#FF0000;" edge="1" parent="1" source="382b91b5511bd0f7-7" target="382b91b5511bd0f7-10">
          <mxGeometry relative="1" as="geometry">
            <Array as="points">
              <mxPoint x="520" y="243" />
              <mxPoint x="225" y="243" />
            </Array>
          </mxGeometry>
        </mxCell>
        <mxCell id="YlIedj13TrwdOLS3Xuvx-20" value="login" style="edgeLabel;html=1;align=center;verticalAlign=middle;resizable=0;points=[];" vertex="1" connectable="0" parent="YlIedj13TrwdOLS3Xuvx-4">
          <mxGeometry x="-0.0877" relative="1" as="geometry">
            <mxPoint y="-9" as="offset" />
          </mxGeometry>
        </mxCell>
        <mxCell id="382b91b5511bd0f7-7" value="&lt;div style=&quot;font-family: Menlo, Monaco, &amp;quot;Courier New&amp;quot;, monospace; font-size: 10.5px; line-height: 16px;&quot;&gt;&lt;font color=&quot;#1f1f1f&quot;&gt;AccountlessMode&lt;/font&gt;&lt;/div&gt;" style="rounded=1;whiteSpace=wrap;html=1;arcSize=24;fillColor=#ffffc0;strokeColor=#ff0000;shadow=0;comic=0;labelBackgroundColor=none;fontFamily=Verdana;fontSize=12;fontColor=#000000;align=center;" parent="1" vertex="1">
          <mxGeometry x="490" y="120" width="120" height="60" as="geometry" />
        </mxCell>
        <mxCell id="YlIedj13TrwdOLS3Xuvx-2" style="edgeStyle=orthogonalEdgeStyle;orthogonalLoop=1;jettySize=auto;html=1;exitX=0.5;exitY=1;exitDx=0;exitDy=0;entryX=0.75;entryY=1;entryDx=0;entryDy=0;strokeColor=#FF3333;rounded=1;" edge="1" parent="1" source="382b91b5511bd0f7-9" target="382b91b5511bd0f7-7">
          <mxGeometry relative="1" as="geometry" />
        </mxCell>
        <mxCell id="382b91b5511bd0f7-9" value="&lt;div style=&quot;font-family: Menlo, Monaco, &amp;quot;Courier New&amp;quot;, monospace; font-size: 10.5px; line-height: 16px;&quot;&gt;&lt;font color=&quot;#1f1f1f&quot;&gt;SwitchingPool&lt;/font&gt;&lt;/div&gt;" style="rounded=1;whiteSpace=wrap;html=1;arcSize=24;fillColor=#ffffc0;strokeColor=#ff0000;shadow=0;comic=0;labelBackgroundColor=none;fontFamily=Verdana;fontSize=12;fontColor=#000000;align=center;" parent="1" vertex="1">
          <mxGeometry x="720" y="170" width="120" height="60" as="geometry" />
        </mxCell>
        <mxCell id="YlIedj13TrwdOLS3Xuvx-5" style="edgeStyle=orthogonalEdgeStyle;rounded=1;orthogonalLoop=1;jettySize=auto;html=1;exitX=0.75;exitY=0;exitDx=0;exitDy=0;entryX=0.25;entryY=0;entryDx=0;entryDy=0;strokeColor=#FF0000;" edge="1" parent="1" source="382b91b5511bd0f7-10" target="YlIedj13TrwdOLS3Xuvx-3">
          <mxGeometry relative="1" as="geometry" />
        </mxCell>
        <mxCell id="382b91b5511bd0f7-10" value="&lt;div style=&quot;font-family: Menlo, Monaco, &amp;quot;Courier New&amp;quot;, monospace; font-size: 10.5px; line-height: 16px;&quot;&gt;&lt;font color=&quot;#1f1f1f&quot;&gt;AttachingAccount&lt;/font&gt;&lt;/div&gt;" style="rounded=1;whiteSpace=wrap;html=1;arcSize=24;fillColor=#ffffc0;strokeColor=#ff0000;shadow=0;comic=0;labelBackgroundColor=none;fontFamily=Verdana;fontSize=12;fontColor=#000000;align=center;" parent="1" vertex="1">
          <mxGeometry x="165.00000000000003" y="332" width="120" height="60" as="geometry" />
        </mxCell>
        <mxCell id="2a3bc250acf0617d-9" style="edgeStyle=orthogonalEdgeStyle;html=1;labelBackgroundColor=none;endArrow=open;endSize=8;strokeColor=#ff0000;fontFamily=Verdana;fontSize=12;align=left;" parent="1" source="382b91b5511bd0f7-1" target="382b91b5511bd0f7-6" edge="1">
          <mxGeometry relative="1" as="geometry" />
        </mxCell>
        <mxCell id="2a3bc250acf0617d-10" style="edgeStyle=orthogonalEdgeStyle;html=1;labelBackgroundColor=none;endArrow=open;endSize=8;strokeColor=#ff0000;fontFamily=Verdana;fontSize=12;align=left;" parent="1" edge="1">
          <mxGeometry relative="1" as="geometry">
            <Array as="points">
              <mxPoint x="460" y="149" />
            </Array>
            <mxPoint x="360" y="149" as="sourcePoint" />
            <mxPoint x="490" y="149" as="targetPoint" />
          </mxGeometry>
        </mxCell>
        <mxCell id="YlIedj13TrwdOLS3Xuvx-18" value="success instantiating" style="edgeLabel;html=1;align=center;verticalAlign=middle;resizable=0;points=[];" vertex="1" connectable="0" parent="2a3bc250acf0617d-10">
          <mxGeometry x="0.2905" y="-1" relative="1" as="geometry">
            <mxPoint x="-24" y="-10" as="offset" />
          </mxGeometry>
        </mxCell>
        <mxCell id="YlIedj13TrwdOLS3Xuvx-6" style="edgeStyle=orthogonalEdgeStyle;rounded=1;orthogonalLoop=1;jettySize=auto;html=1;exitX=0.25;exitY=1;exitDx=0;exitDy=0;entryX=0.75;entryY=1;entryDx=0;entryDy=0;strokeColor=#FF0000;" edge="1" parent="1" source="YlIedj13TrwdOLS3Xuvx-3" target="382b91b5511bd0f7-10">
          <mxGeometry relative="1" as="geometry" />
        </mxCell>
        <mxCell id="YlIedj13TrwdOLS3Xuvx-26" value="attaching another account or&lt;br&gt;switching a privacy pool" style="edgeLabel;html=1;align=center;verticalAlign=middle;resizable=0;points=[];" vertex="1" connectable="0" parent="YlIedj13TrwdOLS3Xuvx-6">
          <mxGeometry x="0.0003" relative="1" as="geometry">
            <mxPoint x="-1" y="13" as="offset" />
          </mxGeometry>
        </mxCell>
        <mxCell id="YlIedj13TrwdOLS3Xuvx-14" style="edgeStyle=orthogonalEdgeStyle;rounded=1;orthogonalLoop=1;jettySize=auto;html=1;exitX=0.5;exitY=1;exitDx=0;exitDy=0;entryX=0.499;entryY=-0.008;entryDx=0;entryDy=0;entryPerimeter=0;strokeColor=#FF0000;" edge="1" parent="1" source="YlIedj13TrwdOLS3Xuvx-3" target="YlIedj13TrwdOLS3Xuvx-13">
          <mxGeometry relative="1" as="geometry" />
        </mxCell>
        <mxCell id="YlIedj13TrwdOLS3Xuvx-24" value="requesting&lt;br&gt;history records" style="edgeLabel;html=1;align=center;verticalAlign=middle;resizable=0;points=[];rotation=-90;" vertex="1" connectable="0" parent="YlIedj13TrwdOLS3Xuvx-14">
          <mxGeometry x="-0.028" y="2" relative="1" as="geometry">
            <mxPoint x="12" y="6" as="offset" />
          </mxGeometry>
        </mxCell>
        <mxCell id="YlIedj13TrwdOLS3Xuvx-3" value="&lt;div style=&quot;font-family: Menlo, Monaco, &amp;quot;Courier New&amp;quot;, monospace; font-size: 10.5px; line-height: 16px;&quot;&gt;&lt;font color=&quot;#1f1f1f&quot;&gt;FullMode&lt;/font&gt;&lt;/div&gt;" style="rounded=1;whiteSpace=wrap;html=1;arcSize=24;fillColor=#ffffc0;strokeColor=#ff0000;shadow=0;comic=0;labelBackgroundColor=none;fontFamily=Verdana;fontSize=12;fontColor=#000000;align=center;" vertex="1" parent="1">
          <mxGeometry x="396.03" y="332" width="120" height="60" as="geometry" />
        </mxCell>
        <mxCell id="YlIedj13TrwdOLS3Xuvx-7" style="edgeStyle=orthogonalEdgeStyle;rounded=1;orthogonalLoop=1;jettySize=auto;html=1;exitX=0.75;exitY=0;exitDx=0;exitDy=0;entryX=0.25;entryY=0;entryDx=0;entryDy=0;strokeColor=#FF0000;" edge="1" parent="1" source="YlIedj13TrwdOLS3Xuvx-3" target="382b91b5511bd0f7-5">
          <mxGeometry relative="1" as="geometry" />
        </mxCell>
        <mxCell id="YlIedj13TrwdOLS3Xuvx-22" value="syncing local state" style="edgeLabel;html=1;align=center;verticalAlign=middle;resizable=0;points=[];" vertex="1" connectable="0" parent="YlIedj13TrwdOLS3Xuvx-7">
          <mxGeometry x="0.1125" y="-2" relative="1" as="geometry">
            <mxPoint x="-3" y="-10" as="offset" />
          </mxGeometry>
        </mxCell>
        <mxCell id="YlIedj13TrwdOLS3Xuvx-9" value="&lt;div style=&quot;font-family: Menlo, Monaco, &amp;quot;Courier New&amp;quot;, monospace; font-size: 10.5px; line-height: 16px;&quot;&gt;&lt;div style=&quot;line-height: 16px;&quot;&gt;&lt;font color=&quot;#1f1f1f&quot;&gt;StateUpdatingContinuous&lt;/font&gt;&lt;/div&gt;&lt;/div&gt;" style="rounded=1;whiteSpace=wrap;html=1;arcSize=24;fillColor=#ffffc0;strokeColor=#ff0000;shadow=0;comic=0;labelBackgroundColor=none;fontFamily=Verdana;fontSize=12;fontColor=#000000;align=center;" vertex="1" parent="1">
          <mxGeometry x="816" y="332" width="170" height="60" as="geometry" />
        </mxCell>
        <mxCell id="YlIedj13TrwdOLS3Xuvx-12" style="edgeStyle=orthogonalEdgeStyle;rounded=1;orthogonalLoop=1;jettySize=auto;html=1;exitX=0.25;exitY=0;exitDx=0;exitDy=0;strokeColor=#FF0000;" edge="1" parent="1" source="YlIedj13TrwdOLS3Xuvx-9">
          <mxGeometry relative="1" as="geometry">
            <mxPoint x="470" y="332" as="targetPoint" />
            <Array as="points">
              <mxPoint x="859" y="290" />
              <mxPoint x="470" y="290" />
              <mxPoint x="470" y="332" />
            </Array>
          </mxGeometry>
        </mxCell>
        <mxCell id="YlIedj13TrwdOLS3Xuvx-13" value="&lt;div style=&quot;font-family: Menlo, Monaco, &amp;quot;Courier New&amp;quot;, monospace; font-size: 10.5px; line-height: 16px;&quot;&gt;&lt;div style=&quot;line-height: 16px;&quot;&gt;&lt;font color=&quot;#1f1f1f&quot;&gt;HistoryUpdating&lt;/font&gt;&lt;/div&gt;&lt;/div&gt;" style="rounded=1;whiteSpace=wrap;html=1;arcSize=24;fillColor=#ffffc0;strokeColor=#ff0000;shadow=0;comic=0;labelBackgroundColor=none;fontFamily=Verdana;fontSize=12;fontColor=#000000;align=center;" vertex="1" parent="1">
          <mxGeometry x="396.03" y="480" width="120" height="60" as="geometry" />
        </mxCell>
        <mxCell id="YlIedj13TrwdOLS3Xuvx-15" style="edgeStyle=orthogonalEdgeStyle;rounded=1;orthogonalLoop=1;jettySize=auto;html=1;entryX=0.348;entryY=1.007;entryDx=0;entryDy=0;entryPerimeter=0;movable=1;resizable=1;rotatable=1;deletable=1;editable=1;locked=0;connectable=1;strokeColor=#FF0000;" edge="1" parent="1" target="YlIedj13TrwdOLS3Xuvx-3">
          <mxGeometry relative="1" as="geometry">
            <mxPoint x="438" y="480" as="sourcePoint" />
            <Array as="points">
              <mxPoint x="438" y="436" />
              <mxPoint x="438" y="436" />
            </Array>
          </mxGeometry>
        </mxCell>
        <mxCell id="YlIedj13TrwdOLS3Xuvx-17" style="edgeStyle=orthogonalEdgeStyle;rounded=1;orthogonalLoop=1;jettySize=auto;html=1;exitX=0.5;exitY=0;exitDx=0;exitDy=0;entryX=0.469;entryY=1.013;entryDx=0;entryDy=0;entryPerimeter=0;strokeColor=#FF0000;" edge="1" parent="1" source="YlIedj13TrwdOLS3Xuvx-3" target="382b91b5511bd0f7-7">
          <mxGeometry relative="1" as="geometry" />
        </mxCell>
        <mxCell id="YlIedj13TrwdOLS3Xuvx-21" value="logout" style="edgeLabel;html=1;align=center;verticalAlign=middle;resizable=0;points=[];" vertex="1" connectable="0" parent="YlIedj13TrwdOLS3Xuvx-17">
          <mxGeometry x="0.0259" relative="1" as="geometry">
            <mxPoint y="7" as="offset" />
          </mxGeometry>
        </mxCell>
      </root>
    </mxGraphModel>
  </diagram>
</mxfile>
